<?xml version="1.0" encoding="UTF-8"?><svg id="Capa_2" xmlns="http://www.w3.org/2000/svg" viewBox="0 0 44.4 46.45"><g id="Capa_1-2"><g id="_08LPwz"><path d="M32.32,46.44H12.12c-2.07.01-4.01-1.8-4.03-3.8l-.08-7.09-2.37-.02c-2.78.26-5.58-1.78-5.59-4.72l-.05-14.94c.34-2.49,2.31-4.46,4.84-4.59l4.47-.02-.03-6.26c-.01-2.39,1.53-4.92,4.15-4.93L30.4,0c2.35,0,4.56,1.65,4.58,4.04l.05,7.21,4.61.03c2.55.02,4.5,2.19,4.75,4.71l-.06,14.81c-.01,3.01-2.94,5.03-5.76,4.71l-2.19.03-.04,6.85c-.01,2.01-1.82,4.04-4.02,4.04ZM32.9,4.37c0-1.25-1.1-2.02-2.24-2.19H13.82c-1.1.07-2.33.83-2.34,2l-.04,7.08,21.5-.02-.04-6.87ZM36.35,26.94l.02,6.38,3.01.02c1.48.01,2.83-1.13,2.84-2.68l.07-13.58c0-1.63-.75-3.57-2.67-3.57l-34.47-.04c-1.72,0-3.02,1.26-3.02,2.95v13.98c0,1.49,1.07,2.91,2.57,2.92l3.32.02.02-6.45c0-.35.4-.88.82-.88h26.39c.54,0,1.09.32,1.09.93ZM32.21,44.27c1.2-.13,2.02-1.03,2.02-2.19v-13.88s-24.04,0-24.04,0v13.88c0,1.2.83,2.09,2.02,2.19h20Z"/><circle cx="36.63" cy="18.64" r="1.69"/><path d="M29.46,39.81h-14.47c-.62,0-1-.76-.95-1.17.07-.68.59-1.05,1.29-1.05l14.24.04c.58,0,.84.7.83,1.12-.01.39-.3,1.06-.93,1.06Z"/><path d="M26.59,34.78h-8.69c-.69,0-1.19-.41-1.21-1.04-.02-.55.4-1.15,1.07-1.15h8.82c.69,0,1.14.45,1.18,1.03.05.68-.44,1.16-1.18,1.16Z"/></g></g></svg>