<?xml version="1.0" encoding="UTF-8"?><svg id="Capa_2" xmlns="http://www.w3.org/2000/svg" viewBox="0 0 44.31 32.89"><g id="Capa_1-2"><path d="M41.5,12.09c.94.97,2.7-.38,2.78-1.04.07-.58.07-1.4-.64-2.12C31.72-3.14,12.55-2.89.58,9.15c-.98.99-.61,2.18.25,2.87.98.79,1.74.47,2.73-.5C14.34.96,30.9,1.1,41.5,12.09Z"/><path d="M34.99,18.29c.74.73,2.08.19,2.63-.29.43-.38,1.18-1.23.5-2.18-8.52-8.73-21.95-8.98-31.01-.86-1.01.91-1.27,1.95-.61,2.89s2.1,1.14,3.06.21c7.18-6.99,18.35-6.83,25.43.23Z"/><path d="M28.83,24.43c.79.64,1.93.24,2.44-.14.47-.35,1.22-1.48.5-2.2-5.14-5.08-13.26-5.31-18.57-.46-.91.83-.99,1.82-.4,2.59.48.61,1.74,1.07,2.6.34,3.95-3.34,9.4-3.41,13.42-.13Z"/><circle cx="22.06" cy="29.8" r="3.08"/></g></svg>