<?xml version="1.0" encoding="UTF-8"?><svg id="Capa_2" xmlns="http://www.w3.org/2000/svg" viewBox="0 0 44.4 47.61"><g id="Capa_1-2"><path d="M14.27,42.59l-12.42,4.6c-.55.2-1.05.08-1.41-.21-.44-.35-.53-.87-.39-1.45l3.42-13.35c.21-.81.52-1.32,1.07-1.91l5.61-5.86L31.25,2.05c2.11-2.24,5.49-2.84,8.01-.79,1.36,1.11,2.65,2.29,3.83,3.71,1.66,2.01,1.82,5.5,0,7.45l-8.67,9.28-18.38,19.72c-.53.57-.99.87-1.77,1.16ZM41.12,10.73c1.07-1.17.72-3.03-.13-4.15-1.03-1.1-2.04-2.02-3.15-3.02-1.4-1.26-3.53-.95-4.81.4l-2.73,2.9,7.65,7.35,3.16-3.47ZM6.88,42.48l6.96-2.55,7.55-8.04,14.75-15.83-7.69-7.23-15.13,16.09-7.22,7.63-2.86,11.3c1.3-.34,2.39-.87,3.64-1.37Z"/><path d="M35.89,47.6h-17.1c-.42,0-.69-.33-.78-1.18-.05-.51.12-1.58.51-1.58h17.28c.38,0,.63.6.65,1.26s-.16,1.3-.56,1.5Z"/></g></svg>